<?xml version="1.0" encoding="utf-8"?>
<!-- Generator: Adobe Illustrator 24.2.3, SVG Export Plug-In . SVG Version: 6.00 Build 0)  -->
<svg version="1.1" id="Layer_1" xmlns="http://www.w3.org/2000/svg" xmlns:xlink="http://www.w3.org/1999/xlink" x="0px" y="0px"
	 viewBox="0 0 512 512" style="enable-background:new 0 0 512 512;" xml:space="preserve">
<style type="text/css">
	.st0{fill-rule:evenodd;clip-rule:evenodd;}
	.st1{fill:#FFDD00;}
	.st2{fill:#FFFFFF;}
</style>
<g>
	
		<rect id="Rectangle-Copy-2_00000105397358270492898290000015194360294321656766_" x="31" y="133.3" class="st0" width="450" height="245.5"/>
	<g>
		<g>
			<path class="st1" d="M117.9,288.2c7.7,13.3,20.5,13.3,28.1,0l4.1-7.7l-38.9-67H75L117.9,288.2z"/>
			<path class="st1" d="M199.2,259.6c-3.1,5.1-9.7,5.1-12.3,0l-26.6-46h-36.8l43,74.7c7.7,13.3,20.5,13.3,28.1,0l28.6-50.1
				L209,213.6h-36.8L199.2,259.6z"/>
		</g>
		<g>
			<path class="st2" d="M248.8,252.9h7.7l0,0c4.6-17.4,6.6-24.5,7.2-29.1c0.5,4.6,2.6,12.3,7.2,29.1l0,0h7.7l10.7-39.4h-7.2l0,0
				c-4.6,17.9-6.6,25.1-7.2,29.7c-1-5.1-3.1-13.3-7.2-29.7l0,0h-7.2l0,0c-4.6,17.9-6.6,25.6-7.2,30.2c-1-4.6-3.1-12.8-7.7-30.2l0,0
				h-7.2L248.8,252.9L248.8,252.9z"/>
			<path class="st2" d="M301,253.4c5.6,0,11.3-3.1,13.3-7.7l-5.1-2.6l0,0l0,0c-0.5,1.5-3.1,4.6-7.7,4.6s-7.7-2.6-8.2-6.6h22.5v-0.5
				c0-5.6-1.5-10.2-4.1-13.3c-2.6-2.6-6.1-4.1-10.2-4.1c-4.1,0-7.7,1.5-10.7,4.6c-2.6,2.6-4.1,6.6-4.1,10.7
				C286.2,247.3,292.3,253.4,301,253.4z M300.5,229.4c4.1,0,7.2,2.6,7.7,6.1h-15.3C293.3,232,296.4,229.4,300.5,229.4z"/>
			<path class="st2" d="M329.6,253.4c7.2,0,11.8-3.6,11.8-8.7c0-6.6-6.1-8.2-10.7-9.2c-3.1-1-6.1-1.5-6.1-3.6c0-1.5,1.5-3.1,4.1-3.1
				s4.6,1.5,5.1,3.6v1l0,0l5.6-1c0-5.6-4.6-9.2-11.3-9.2s-10.7,3.6-10.7,8.7c0,6.1,5.6,7.7,10.2,8.7c3.6,1,6.1,1.5,6.1,4.1
				c0,2-2,3.1-4.6,3.1c-3.6,0-6.1-1.5-6.1-4.6v-0.5l-5.6,1.5C317.4,250.4,324,253.4,329.6,253.4z"/>
			<path class="st2" d="M346.5,247.8c0,3.1,2,6.1,5.6,6.1c4.1,0,5.6-0.5,5.6-0.5v-5.6c0,0-1,0-3.1,0c-1,0-1.5-0.5-1.5-1.5v-16.9h4.6
				v-5.6h-4.6v-8.2l-6.6,1.5v6.6h-3.6v5.6h3.6V247.8z"/>
			<path class="st2" d="M397.1,227.9v-3.6h-5.6v29.1h6.6v-17.9c0-1.5,0.5-3.1,1.5-4.1c1.5-1,3.6-1.5,6.6-1h0.5v-6.1h-0.5
				C402.8,223.3,399.2,224.8,397.1,227.9z"/>
			<path class="st2" d="M425.8,223.8c-4.1,0-8.2,1.5-9.7,4.6v-4.1h-6.1v29.1h6.6v-15.3c0-5.1,2.6-8.2,7.2-8.2c3.1,0,6.6,1.5,6.6,7.7
				v15.9h6.6v-16.9C437,226.9,431.4,223.8,425.8,223.8z"/>
			<path class="st2" d="M266.2,281.6c0,6.6-3.1,10.2-8.7,10.2s-8.7-3.6-8.7-10.2v-23h-7.2v23c0,10.7,6.1,16.9,15.9,16.9
				c9.7,0,15.9-6.1,15.9-16.9v-23h-7.2V281.6z"/>
			<path class="st2" d="M292.8,268.3c-4.1,0-8.2,1.5-9.7,4.6v-4.1H277v29.1h6.6v-15.3c0-5.1,2.6-8.2,7.2-8.2c3.1,0,6.6,1.5,6.6,7.7
				v15.9h6.6v-16.9C304.1,271.3,298.4,268.3,292.8,268.3z"/>
			<rect x="308.7" y="268.8" class="st2" width="6.6" height="29.1"/>
			<path class="st2" d="M311.7,258c-2,0-4.1,1.5-4.1,4.1c0,2,1.5,4.1,4.1,4.1c2,0,4.1-1.5,4.1-4.1C315.8,259.6,314.3,258,311.7,258z
				"/>
			<path class="st2" d="M333.7,268.3c-4.1,0-8.2,1.5-10.7,4.1c-2.6,2.6-4.1,6.6-4.1,10.7c0,8.7,6.6,14.8,15.3,14.8
				s15.3-6.1,15.3-14.8c0-4.1-1.5-8.2-4.6-10.7C341.9,269.8,338.3,268.3,333.7,268.3z M333.7,291.8c-5.1,0-8.7-3.6-8.7-8.7
				c0-5.1,3.6-8.7,8.7-8.7c5.1,0,8.7,3.6,8.7,8.7C342.4,288.2,338.8,291.8,333.7,291.8z"/>
			<path class="st2" d="M368,268.3c-4.1,0-8.2,1.5-9.7,4.6v-4.1h-6.1v29.1h6.6v-15.3c0-5.1,2.6-8.2,7.2-8.2c3.1,0,6.6,1.5,6.6,7.7
				v15.9h6.6v-16.9C379.7,271.3,373.6,268.3,368,268.3z"/>
			<path class="st2" d="M374.1,223.8c-4.1,0-7.7,1.5-10.7,4.6c-2.6,2.6-4.1,6.6-4.1,10.7c0,8.7,6.1,14.8,14.8,14.8
				c5.6,0,11.2-3.1,13.3-7.7l-5.1-2.6l0,0l0,0c-0.5,1.5-3.1,4.6-7.7,4.6c-4.6,0-7.7-2.6-8.2-6.6H389v-0.5c0-5.6-1.5-10.2-4.1-13.3
				C381.8,224.8,378.2,223.8,374.1,223.8z M365.9,235.5c0.5-3.6,3.6-6.1,7.7-6.1c4.1,0,7.2,2.6,7.7,6.1H365.9z"/>
		</g>
	</g>
</g>
</svg>
